# xmcd
#
# Track frame offsets:
#	150
#	13658
#	34557
#	49082
#	68063
#	82642
#	95468
#	111614
#	128894
#	146094
#	169717
#	180814
#	213728
#	232169
#
# Disc length: 3358 seconds
#
# Revision: 0
# Processed by: cddbd v1.5.1PL0 Copyright (c) Steve Scherf et al.
# Submitted via: dBpowerAMP V4.0
#
DISCID=bb0d1c0e
DTITLE=Hayseed Dixie - Live At The Mercy Lounge: Nov. 7, 2003
DYEAR=2003
DGENRE=Hillbilly
TTITLE0=Dirty Deeds (Done Dirt Cheap)
TTITLE1=You Shook Me All Night Long
TTITLE2=My Best Friend's Girl
TTITLE3=I Know You're Married
TTITLE4=Hell's Bells
TTITLE5=Rock And Roll All Night
TTITLE6=Deliah's Gone
TTITLE7=Have A Drink On Me
TTITLE8=Charlotte Mountain Breakdown
TTITLE9=Detroit Rock City
TTITLE10=Cat Scratch Fever
TTITLE11=The Lunch Story
TTITLE12=Feel Like Makin' Lunch... Err, Love
TTITLE13=Big Bottoms
EXTD=
EXTT0=
EXTT1=
EXTT2=
EXTT3=
EXTT4=
EXTT5=
EXTT6=
EXTT7=
EXTT8=
EXTT9=
EXTT10=
EXTT11=
EXTT12=
EXTT13=
PLAYORDER=
